<mxfile host="app.diagrams.net" modified="2022-03-02T17:38:39.729Z" agent="5.0 (Windows NT 10.0) AppleWebKit/537.36 (KHTML, like Gecko) Chrome/96.0.4664.174 YaBrowser/22.1.4.840 Yowser/2.5 Safari/537.36" etag="26fDnrkDK52WNDHcUHon" version="16.6.4" type="github">
  <diagram id="W_ycIp3PKJZ5ysLDMUMX" name="Page-1">
    <mxGraphModel dx="1182" dy="735" grid="1" gridSize="10" guides="1" tooltips="1" connect="1" arrows="1" fold="1" page="1" pageScale="1" pageWidth="827" pageHeight="1169" math="0" shadow="0">
      <root>
        <mxCell id="0" />
        <mxCell id="1" parent="0" />
        <mxCell id="9_YWLK2KaSwUNVytvc_l-1" value="Наставник" style="swimlane;" vertex="1" parent="1">
          <mxGeometry x="150" y="60" width="760" height="1120" as="geometry" />
        </mxCell>
        <mxCell id="9_YWLK2KaSwUNVytvc_l-8" value="1. Подготовиться к&lt;br&gt;обучению" style="rounded=0;whiteSpace=wrap;html=1;" vertex="1" parent="9_YWLK2KaSwUNVytvc_l-1">
          <mxGeometry x="189" y="50" width="120" height="50" as="geometry" />
        </mxCell>
        <mxCell id="9_YWLK2KaSwUNVytvc_l-16" value="" style="edgeStyle=orthogonalEdgeStyle;rounded=0;orthogonalLoop=1;jettySize=auto;html=1;" edge="1" parent="9_YWLK2KaSwUNVytvc_l-1" source="9_YWLK2KaSwUNVytvc_l-10" target="9_YWLK2KaSwUNVytvc_l-14">
          <mxGeometry relative="1" as="geometry">
            <Array as="points">
              <mxPoint x="249" y="260" />
              <mxPoint x="249" y="260" />
            </Array>
          </mxGeometry>
        </mxCell>
        <mxCell id="9_YWLK2KaSwUNVytvc_l-10" value="2. Проверить&lt;br&gt;группу обучения" style="rhombus;whiteSpace=wrap;html=1;rounded=0;" vertex="1" parent="9_YWLK2KaSwUNVytvc_l-1">
          <mxGeometry x="186.5" y="130" width="125" height="95" as="geometry" />
        </mxCell>
        <mxCell id="9_YWLK2KaSwUNVytvc_l-11" value="" style="edgeStyle=orthogonalEdgeStyle;rounded=0;orthogonalLoop=1;jettySize=auto;html=1;" edge="1" parent="9_YWLK2KaSwUNVytvc_l-1" source="9_YWLK2KaSwUNVytvc_l-8" target="9_YWLK2KaSwUNVytvc_l-10">
          <mxGeometry relative="1" as="geometry" />
        </mxCell>
        <mxCell id="9_YWLK2KaSwUNVytvc_l-12" value="2.3. Рассказать&lt;br&gt;стажеру о&lt;br&gt;правилах&lt;br&gt;стажировки" style="whiteSpace=wrap;html=1;rounded=0;" vertex="1" parent="9_YWLK2KaSwUNVytvc_l-1">
          <mxGeometry x="40" y="270" width="120" height="60" as="geometry" />
        </mxCell>
        <mxCell id="9_YWLK2KaSwUNVytvc_l-13" value="" style="edgeStyle=orthogonalEdgeStyle;rounded=0;orthogonalLoop=1;jettySize=auto;html=1;" edge="1" parent="9_YWLK2KaSwUNVytvc_l-1" source="9_YWLK2KaSwUNVytvc_l-10" target="9_YWLK2KaSwUNVytvc_l-12">
          <mxGeometry relative="1" as="geometry" />
        </mxCell>
        <mxCell id="9_YWLK2KaSwUNVytvc_l-14" value="2.2. Поставить&lt;br&gt;неявку в задаче в&lt;br&gt;1С" style="whiteSpace=wrap;html=1;rounded=0;" vertex="1" parent="9_YWLK2KaSwUNVytvc_l-1">
          <mxGeometry x="191.5" y="270" width="120" height="60" as="geometry" />
        </mxCell>
        <mxCell id="9_YWLK2KaSwUNVytvc_l-15" value="2.1. Сообщить об&lt;br&gt;отсутствии&lt;br&gt;задачи в 1С" style="whiteSpace=wrap;html=1;rounded=0;" vertex="1" parent="9_YWLK2KaSwUNVytvc_l-1">
          <mxGeometry x="339" y="270" width="120" height="60" as="geometry" />
        </mxCell>
        <mxCell id="9_YWLK2KaSwUNVytvc_l-18" value="" style="edgeStyle=orthogonalEdgeStyle;rounded=0;orthogonalLoop=1;jettySize=auto;html=1;entryX=0.5;entryY=0;entryDx=0;entryDy=0;" edge="1" parent="9_YWLK2KaSwUNVytvc_l-1" source="9_YWLK2KaSwUNVytvc_l-10" target="9_YWLK2KaSwUNVytvc_l-15">
          <mxGeometry relative="1" as="geometry">
            <mxPoint x="394" y="177.5" as="targetPoint" />
          </mxGeometry>
        </mxCell>
        <mxCell id="9_YWLK2KaSwUNVytvc_l-26" value="5. Оценить&lt;br&gt;готовность&lt;br&gt;стажера к&lt;br&gt;самостоятельной&lt;br&gt;работе" style="whiteSpace=wrap;html=1;rounded=0;" vertex="1" parent="9_YWLK2KaSwUNVytvc_l-1">
          <mxGeometry x="620" y="520" width="120" height="80" as="geometry" />
        </mxCell>
        <mxCell id="9_YWLK2KaSwUNVytvc_l-39" value="3. Проверить&lt;br&gt;прогресс курса в&lt;br&gt;СДО" style="rhombus;whiteSpace=wrap;html=1;rounded=0;" vertex="1" parent="9_YWLK2KaSwUNVytvc_l-1">
          <mxGeometry x="350" y="520" width="125" height="95" as="geometry" />
        </mxCell>
        <mxCell id="9_YWLK2KaSwUNVytvc_l-43" value="" style="edgeStyle=orthogonalEdgeStyle;rounded=0;orthogonalLoop=1;jettySize=auto;html=1;entryX=0;entryY=0;entryDx=0;entryDy=0;" edge="1" parent="9_YWLK2KaSwUNVytvc_l-1" source="9_YWLK2KaSwUNVytvc_l-12" target="9_YWLK2KaSwUNVytvc_l-39">
          <mxGeometry relative="1" as="geometry">
            <mxPoint x="100" y="410" as="targetPoint" />
            <Array as="points">
              <mxPoint x="100" y="390" />
              <mxPoint x="381" y="390" />
            </Array>
          </mxGeometry>
        </mxCell>
        <mxCell id="9_YWLK2KaSwUNVytvc_l-44" value="3.1. Организовать&lt;br&gt;изучение курса" style="whiteSpace=wrap;html=1;rounded=0;" vertex="1" parent="9_YWLK2KaSwUNVytvc_l-1">
          <mxGeometry x="290" y="680" width="120" height="60" as="geometry" />
        </mxCell>
        <mxCell id="9_YWLK2KaSwUNVytvc_l-45" value="" style="edgeStyle=orthogonalEdgeStyle;rounded=0;orthogonalLoop=1;jettySize=auto;html=1;" edge="1" parent="9_YWLK2KaSwUNVytvc_l-1" source="9_YWLK2KaSwUNVytvc_l-39" target="9_YWLK2KaSwUNVytvc_l-44">
          <mxGeometry relative="1" as="geometry">
            <Array as="points">
              <mxPoint x="400" y="648" />
              <mxPoint x="350" y="648" />
            </Array>
          </mxGeometry>
        </mxCell>
        <mxCell id="9_YWLK2KaSwUNVytvc_l-48" value="4. Провести&lt;br&gt;практическое&lt;br&gt;обучение" style="whiteSpace=wrap;html=1;rounded=0;" vertex="1" parent="9_YWLK2KaSwUNVytvc_l-1">
          <mxGeometry x="420" y="680" width="120" height="60" as="geometry" />
        </mxCell>
        <mxCell id="9_YWLK2KaSwUNVytvc_l-49" value="" style="edgeStyle=orthogonalEdgeStyle;rounded=0;orthogonalLoop=1;jettySize=auto;html=1;" edge="1" parent="9_YWLK2KaSwUNVytvc_l-1" source="9_YWLK2KaSwUNVytvc_l-39" target="9_YWLK2KaSwUNVytvc_l-48">
          <mxGeometry relative="1" as="geometry">
            <Array as="points">
              <mxPoint x="420" y="648" />
              <mxPoint x="480" y="648" />
            </Array>
          </mxGeometry>
        </mxCell>
        <mxCell id="9_YWLK2KaSwUNVytvc_l-51" value="" style="edgeStyle=orthogonalEdgeStyle;rounded=0;orthogonalLoop=1;jettySize=auto;html=1;entryX=0.25;entryY=0;entryDx=0;entryDy=0;" edge="1" parent="9_YWLK2KaSwUNVytvc_l-1" source="9_YWLK2KaSwUNVytvc_l-48" target="9_YWLK2KaSwUNVytvc_l-26">
          <mxGeometry relative="1" as="geometry">
            <mxPoint x="480" y="820" as="targetPoint" />
            <Array as="points">
              <mxPoint x="480" y="760" />
              <mxPoint x="580" y="760" />
              <mxPoint x="580" y="500" />
              <mxPoint x="650" y="500" />
            </Array>
          </mxGeometry>
        </mxCell>
        <mxCell id="9_YWLK2KaSwUNVytvc_l-53" value="" style="edgeStyle=orthogonalEdgeStyle;rounded=0;orthogonalLoop=1;jettySize=auto;html=1;entryX=0.75;entryY=0;entryDx=0;entryDy=0;" edge="1" parent="9_YWLK2KaSwUNVytvc_l-1" source="9_YWLK2KaSwUNVytvc_l-26" target="9_YWLK2KaSwUNVytvc_l-48">
          <mxGeometry relative="1" as="geometry">
            <mxPoint x="680" y="690" as="targetPoint" />
            <Array as="points">
              <mxPoint x="680" y="630" />
              <mxPoint x="510" y="630" />
            </Array>
          </mxGeometry>
        </mxCell>
        <mxCell id="9_YWLK2KaSwUNVytvc_l-55" value="" style="edgeStyle=orthogonalEdgeStyle;rounded=0;orthogonalLoop=1;jettySize=auto;html=1;entryX=0.5;entryY=0;entryDx=0;entryDy=0;" edge="1" parent="9_YWLK2KaSwUNVytvc_l-1" source="9_YWLK2KaSwUNVytvc_l-44" target="9_YWLK2KaSwUNVytvc_l-8">
          <mxGeometry relative="1" as="geometry">
            <mxPoint x="350" y="820" as="targetPoint" />
            <Array as="points">
              <mxPoint x="350" y="800" />
              <mxPoint x="20" y="800" />
              <mxPoint x="20" y="40" />
              <mxPoint x="249" y="40" />
            </Array>
          </mxGeometry>
        </mxCell>
        <mxCell id="9_YWLK2KaSwUNVytvc_l-58" value="Список стажеров" style="text;strokeColor=none;fillColor=none;align=left;verticalAlign=middle;spacingLeft=4;spacingRight=4;overflow=hidden;points=[[0,0.5],[1,0.5]];portConstraint=eastwest;rotatable=0;" vertex="1" parent="9_YWLK2KaSwUNVytvc_l-1">
          <mxGeometry x="270" y="110" width="110" height="30" as="geometry" />
        </mxCell>
        <mxCell id="9_YWLK2KaSwUNVytvc_l-59" value="Список СП и ЛП" style="text;html=1;strokeColor=none;fillColor=none;align=center;verticalAlign=middle;whiteSpace=wrap;rounded=0;" vertex="1" parent="9_YWLK2KaSwUNVytvc_l-1">
          <mxGeometry x="40" y="200" width="60" height="30" as="geometry" />
        </mxCell>
        <mxCell id="9_YWLK2KaSwUNVytvc_l-60" value="Нет задачи в 1C" style="text;html=1;strokeColor=none;fillColor=none;align=center;verticalAlign=middle;whiteSpace=wrap;rounded=0;" vertex="1" parent="9_YWLK2KaSwUNVytvc_l-1">
          <mxGeometry x="410" y="200" width="60" height="30" as="geometry" />
        </mxCell>
        <mxCell id="9_YWLK2KaSwUNVytvc_l-61" value="Стажер не явился" style="text;html=1;strokeColor=none;fillColor=none;align=center;verticalAlign=middle;whiteSpace=wrap;rounded=0;" vertex="1" parent="9_YWLK2KaSwUNVytvc_l-1">
          <mxGeometry x="260" y="225" width="60" height="30" as="geometry" />
        </mxCell>
        <mxCell id="9_YWLK2KaSwUNVytvc_l-62" value="Сообщение в Telegram" style="text;strokeColor=none;fillColor=none;align=left;verticalAlign=middle;spacingLeft=4;spacingRight=4;overflow=hidden;points=[[0,0.5],[1,0.5]];portConstraint=eastwest;rotatable=0;" vertex="1" parent="9_YWLK2KaSwUNVytvc_l-1">
          <mxGeometry x="475" y="320" width="145" height="30" as="geometry" />
        </mxCell>
        <mxCell id="9_YWLK2KaSwUNVytvc_l-64" value="Задача 1C ЛП" style="text;html=1;strokeColor=none;fillColor=none;align=center;verticalAlign=middle;whiteSpace=wrap;rounded=0;" vertex="1" parent="9_YWLK2KaSwUNVytvc_l-1">
          <mxGeometry x="450" y="430" width="60" height="40" as="geometry" />
        </mxCell>
        <mxCell id="9_YWLK2KaSwUNVytvc_l-65" value="Сообщение в Telegram" style="text;strokeColor=none;fillColor=none;align=left;verticalAlign=middle;spacingLeft=4;spacingRight=4;overflow=hidden;points=[[0,0.5],[1,0.5]];portConstraint=eastwest;rotatable=0;" vertex="1" parent="9_YWLK2KaSwUNVytvc_l-1">
          <mxGeometry x="100" y="390" width="145" height="30" as="geometry" />
        </mxCell>
        <mxCell id="9_YWLK2KaSwUNVytvc_l-63" value="Задача 1C СП" style="text;html=1;strokeColor=none;fillColor=none;align=center;verticalAlign=middle;whiteSpace=wrap;rounded=0;" vertex="1" parent="9_YWLK2KaSwUNVytvc_l-1">
          <mxGeometry x="690" y="440" width="60" height="30" as="geometry" />
        </mxCell>
        <mxCell id="9_YWLK2KaSwUNVytvc_l-66" value="Зачет в СДО" style="text;strokeColor=none;fillColor=none;align=left;verticalAlign=middle;spacingLeft=4;spacingRight=4;overflow=hidden;points=[[0,0.5],[1,0.5]];portConstraint=eastwest;rotatable=0;" vertex="1" parent="9_YWLK2KaSwUNVytvc_l-1">
          <mxGeometry x="420" y="615" width="80" height="30" as="geometry" />
        </mxCell>
        <mxCell id="9_YWLK2KaSwUNVytvc_l-67" value="Нет зачета &#xa;в СДО" style="text;strokeColor=none;fillColor=none;align=left;verticalAlign=middle;spacingLeft=4;spacingRight=4;overflow=hidden;points=[[0,0.5],[1,0.5]];portConstraint=eastwest;rotatable=0;" vertex="1" parent="9_YWLK2KaSwUNVytvc_l-1">
          <mxGeometry x="320" y="605" width="70" height="40" as="geometry" />
        </mxCell>
        <mxCell id="9_YWLK2KaSwUNVytvc_l-68" value="Завершение &#xa;обучения" style="text;strokeColor=none;fillColor=none;align=left;verticalAlign=middle;spacingLeft=4;spacingRight=4;overflow=hidden;points=[[0,0.5],[1,0.5]];portConstraint=eastwest;rotatable=0;" vertex="1" parent="9_YWLK2KaSwUNVytvc_l-1">
          <mxGeometry x="590" y="730" width="80" height="30" as="geometry" />
        </mxCell>
        <mxCell id="9_YWLK2KaSwUNVytvc_l-69" value="Обучение продлено" style="text;strokeColor=none;fillColor=none;align=left;verticalAlign=middle;spacingLeft=4;spacingRight=4;overflow=hidden;points=[[0,0.5],[1,0.5]];portConstraint=eastwest;rotatable=0;" vertex="1" parent="9_YWLK2KaSwUNVytvc_l-1">
          <mxGeometry x="600" y="630" width="130" height="30" as="geometry" />
        </mxCell>
        <mxCell id="9_YWLK2KaSwUNVytvc_l-70" value="Неявка в 1C" style="text;strokeColor=none;fillColor=none;align=left;verticalAlign=middle;spacingLeft=4;spacingRight=4;overflow=hidden;points=[[0,0.5],[1,0.5]];portConstraint=eastwest;rotatable=0;" vertex="1" parent="9_YWLK2KaSwUNVytvc_l-1">
          <mxGeometry x="260" y="850" width="80" height="30" as="geometry" />
        </mxCell>
        <mxCell id="9_YWLK2KaSwUNVytvc_l-71" value="Неявка в 1C" style="text;strokeColor=none;fillColor=none;align=left;verticalAlign=middle;spacingLeft=4;spacingRight=4;overflow=hidden;points=[[0,0.5],[1,0.5]];portConstraint=eastwest;rotatable=0;" vertex="1" parent="9_YWLK2KaSwUNVytvc_l-1">
          <mxGeometry x="677" y="780" width="80" height="30" as="geometry" />
        </mxCell>
        <mxCell id="9_YWLK2KaSwUNVytvc_l-72" value="Направление &#xa;на обучение" style="text;strokeColor=none;fillColor=none;align=left;verticalAlign=middle;spacingLeft=4;spacingRight=4;overflow=hidden;points=[[0,0.5],[1,0.5]];portConstraint=eastwest;rotatable=0;" vertex="1" parent="9_YWLK2KaSwUNVytvc_l-1">
          <mxGeometry x="20" y="740" width="90" height="60" as="geometry" />
        </mxCell>
        <mxCell id="9_YWLK2KaSwUNVytvc_l-74" value="Направление &#xa;на обучение" style="text;strokeColor=none;fillColor=none;align=left;verticalAlign=middle;spacingLeft=4;spacingRight=4;overflow=hidden;points=[[0,0.5],[1,0.5]];portConstraint=eastwest;rotatable=0;" vertex="1" parent="9_YWLK2KaSwUNVytvc_l-1">
          <mxGeometry x="10" y="1030" width="90" height="60" as="geometry" />
        </mxCell>
        <mxCell id="9_YWLK2KaSwUNVytvc_l-2" value="Менеджер по подбору" style="swimlane;" vertex="1" parent="1">
          <mxGeometry x="910" y="60" width="250" height="1120" as="geometry" />
        </mxCell>
        <mxCell id="9_YWLK2KaSwUNVytvc_l-22" value="2.1.2. Назначить&lt;br&gt;кандидата на&lt;br&gt;задачу в 1С" style="rhombus;whiteSpace=wrap;html=1;rounded=0;" vertex="1" parent="9_YWLK2KaSwUNVytvc_l-2">
          <mxGeometry x="67.5" y="380" width="162.5" height="110" as="geometry" />
        </mxCell>
        <mxCell id="9_YWLK2KaSwUNVytvc_l-33" value="6.1. Скорректировать&lt;br&gt;дату обучения в&lt;br&gt;1С" style="whiteSpace=wrap;html=1;rounded=0;" vertex="1" parent="9_YWLK2KaSwUNVytvc_l-2">
          <mxGeometry x="60" y="1010" width="120" height="60" as="geometry" />
        </mxCell>
        <mxCell id="9_YWLK2KaSwUNVytvc_l-34" value="" style="edgeStyle=orthogonalEdgeStyle;rounded=0;orthogonalLoop=1;jettySize=auto;html=1;" edge="1" parent="9_YWLK2KaSwUNVytvc_l-2" source="9_YWLK2KaSwUNVytvc_l-28" target="9_YWLK2KaSwUNVytvc_l-33">
          <mxGeometry relative="1" as="geometry">
            <Array as="points">
              <mxPoint x="110" y="1010" />
              <mxPoint x="110" y="1010" />
            </Array>
          </mxGeometry>
        </mxCell>
        <mxCell id="9_YWLK2KaSwUNVytvc_l-28" value="6. Выяснить&lt;br&gt;причину неявки&lt;br&gt;стажера" style="whiteSpace=wrap;html=1;rounded=0;" vertex="1" parent="9_YWLK2KaSwUNVytvc_l-2">
          <mxGeometry x="50" y="800" width="120" height="60" as="geometry" />
        </mxCell>
        <mxCell id="9_YWLK2KaSwUNVytvc_l-76" value="Стажер готов &#xa;к обучению" style="text;strokeColor=none;fillColor=none;align=left;verticalAlign=middle;spacingLeft=4;spacingRight=4;overflow=hidden;points=[[0,0.5],[1,0.5]];portConstraint=eastwest;rotatable=0;" vertex="1" parent="9_YWLK2KaSwUNVytvc_l-2">
          <mxGeometry x="20" y="960" width="90" height="30" as="geometry" />
        </mxCell>
        <mxCell id="9_YWLK2KaSwUNVytvc_l-3" value="Менеджер по обучению" style="swimlane;" vertex="1" parent="1">
          <mxGeometry x="1160" y="60" width="210" height="1120" as="geometry" />
        </mxCell>
        <mxCell id="9_YWLK2KaSwUNVytvc_l-32" value="6. Выяснить&lt;br&gt;причину неявки&lt;br&gt;стажера" style="whiteSpace=wrap;html=1;rounded=0;" vertex="1" parent="9_YWLK2KaSwUNVytvc_l-3">
          <mxGeometry x="30" y="900" width="120" height="60" as="geometry" />
        </mxCell>
        <mxCell id="9_YWLK2KaSwUNVytvc_l-75" value="Стажер готов &#xa;к обучению" style="text;strokeColor=none;fillColor=none;align=left;verticalAlign=middle;spacingLeft=4;spacingRight=4;overflow=hidden;points=[[0,0.5],[1,0.5]];portConstraint=eastwest;rotatable=0;" vertex="1" parent="9_YWLK2KaSwUNVytvc_l-3">
          <mxGeometry x="20" y="990" width="90" height="30" as="geometry" />
        </mxCell>
        <mxCell id="9_YWLK2KaSwUNVytvc_l-23" value="" style="edgeStyle=orthogonalEdgeStyle;rounded=0;orthogonalLoop=1;jettySize=auto;html=1;" edge="1" parent="1" source="9_YWLK2KaSwUNVytvc_l-15" target="9_YWLK2KaSwUNVytvc_l-22">
          <mxGeometry relative="1" as="geometry">
            <Array as="points">
              <mxPoint x="549" y="410" />
            </Array>
          </mxGeometry>
        </mxCell>
        <mxCell id="9_YWLK2KaSwUNVytvc_l-27" value="" style="edgeStyle=orthogonalEdgeStyle;rounded=0;orthogonalLoop=1;jettySize=auto;html=1;" edge="1" parent="1" source="9_YWLK2KaSwUNVytvc_l-22" target="9_YWLK2KaSwUNVytvc_l-26">
          <mxGeometry relative="1" as="geometry" />
        </mxCell>
        <mxCell id="9_YWLK2KaSwUNVytvc_l-29" value="" style="edgeStyle=orthogonalEdgeStyle;rounded=0;orthogonalLoop=1;jettySize=auto;html=1;" edge="1" parent="1" source="9_YWLK2KaSwUNVytvc_l-14" target="9_YWLK2KaSwUNVytvc_l-28">
          <mxGeometry relative="1" as="geometry">
            <Array as="points">
              <mxPoint x="420" y="840" />
              <mxPoint x="1020" y="840" />
            </Array>
          </mxGeometry>
        </mxCell>
        <mxCell id="9_YWLK2KaSwUNVytvc_l-31" value="" style="edgeStyle=orthogonalEdgeStyle;rounded=0;orthogonalLoop=1;jettySize=auto;html=1;" edge="1" parent="1" source="9_YWLK2KaSwUNVytvc_l-14" target="9_YWLK2KaSwUNVytvc_l-32">
          <mxGeometry relative="1" as="geometry">
            <mxPoint x="1355" y="1000" as="targetPoint" />
            <Array as="points">
              <mxPoint x="402" y="940" />
              <mxPoint x="1260" y="940" />
            </Array>
          </mxGeometry>
        </mxCell>
        <mxCell id="9_YWLK2KaSwUNVytvc_l-41" value="" style="edgeStyle=orthogonalEdgeStyle;rounded=0;orthogonalLoop=1;jettySize=auto;html=1;entryX=1;entryY=0;entryDx=0;entryDy=0;" edge="1" parent="1" source="9_YWLK2KaSwUNVytvc_l-22" target="9_YWLK2KaSwUNVytvc_l-39">
          <mxGeometry relative="1" as="geometry">
            <mxPoint x="930" y="445" as="targetPoint" />
            <Array as="points">
              <mxPoint x="594" y="480" />
            </Array>
          </mxGeometry>
        </mxCell>
        <mxCell id="9_YWLK2KaSwUNVytvc_l-57" value="" style="edgeStyle=orthogonalEdgeStyle;rounded=0;orthogonalLoop=1;jettySize=auto;html=1;entryX=0.675;entryY=-0.02;entryDx=0;entryDy=0;entryPerimeter=0;" edge="1" parent="1" source="9_YWLK2KaSwUNVytvc_l-33" target="9_YWLK2KaSwUNVytvc_l-8">
          <mxGeometry relative="1" as="geometry">
            <mxPoint x="376" y="110" as="targetPoint" />
            <Array as="points">
              <mxPoint x="1070" y="1150" />
              <mxPoint x="160" y="1150" />
              <mxPoint x="160" y="90" />
              <mxPoint x="420" y="90" />
            </Array>
          </mxGeometry>
        </mxCell>
        <mxCell id="9_YWLK2KaSwUNVytvc_l-36" value="" style="edgeStyle=orthogonalEdgeStyle;rounded=0;orthogonalLoop=1;jettySize=auto;html=1;" edge="1" parent="1" source="9_YWLK2KaSwUNVytvc_l-32">
          <mxGeometry relative="1" as="geometry">
            <mxPoint x="1040" y="1070" as="targetPoint" />
            <Array as="points">
              <mxPoint x="1250" y="1040" />
              <mxPoint x="1040" y="1040" />
              <mxPoint x="1040" y="1070" />
            </Array>
          </mxGeometry>
        </mxCell>
      </root>
    </mxGraphModel>
  </diagram>
</mxfile>
